<svg width="414" height="736" viewBox="0 0 414 736" fill="none" xmlns="http://www.w3.org/2000/svg">
<path d="M417.9 -58.3878H-0.757812V771.079H417.9V-58.3878Z" fill="#F2F2F2"/>
<path d="M-0.757812 188.135C54.546 198.748 121.222 188.611 161.123 154.545C200.686 120.768 186.596 64.9044 198.082 18.3744C206.741 -16.7035 219.964 -49.4254 220.319 -85.2575C220.729 -126.623 228.168 -171.656 200.303 -205.662C171.711 -240.554 121.247 -260.325 71.6109 -266.733C24.8356 -272.772 -20.5882 -256.136 -63.7554 -239.754C-102.211 -225.161 -135.58 -204.292 -163.425 -177.539C-191.441 -150.621 -209.883 -119.285 -224.25 -85.5512C-241.785 -44.3776 -278.092 0.570953 -256.162 40.2112C-234.203 79.9037 -164.18 75.5587 -121.419 100.325C-76.7322 126.206 -53.5827 177.998 -0.757812 188.135Z" fill="#E6E6E6"/>
<path d="M417.9 1101.46C490.729 1089.7 513.468 1010.49 566.81 966.949C607.125 934.045 663.413 917.552 692.713 877.17C724.205 833.767 743.386 782.923 737.073 732.286C730.644 680.725 695.724 636.117 657.596 595.505C618.092 553.43 575.45 508.069 513.93 494.614C452.96 481.278 390.83 504.911 332.194 524.335C277.885 542.326 234.165 572.575 187.907 602.612C129.566 640.494 46.2766 663.716 25.623 723.401C4.92432 783.218 48.5878 845.42 85.1612 899.533C119.386 950.172 171.252 987.782 227.296 1021.79C286.063 1057.46 346.843 1112.94 417.9 1101.46Z" fill="#FEFEFE"/>
</svg>
