<svg width="414" height="736" viewBox="0 0 414 736" fill="none" xmlns="http://www.w3.org/2000/svg">
<g opacity="0.1">
<path d="M521.895 -9.21817H-85.9523V940.147H521.895V-9.21817Z" fill="#F2F2F2" fill-opacity="0.94902"/>
<path d="M217.971 919.205C340.424 925.432 468.395 888.844 550.269 797.624C629.095 709.798 621.283 583.395 625.239 465.465C629.403 341.145 653.864 205.073 573.296 110.288C488.853 10.9511 348.027 -23.264 217.971 -13.6612C96.3924 -4.68493 -0.450073 74.8149 -88.4644 159.157C-179.124 246.038 -283.294 339.935 -281.988 465.465C-280.696 590.349 -174.651 681.502 -82.1485 765.459C4.37473 843.977 101.25 913.261 217.971 919.205Z" fill="#A5A5A5" fill-opacity="0.470588"/>
<path d="M217.971 759.061C297.205 763.091 380.01 739.418 432.988 680.392C483.995 623.563 478.937 541.77 481.497 465.465C484.189 385.02 500.017 296.976 447.885 235.647C393.245 171.37 302.125 149.231 217.971 155.445C139.303 161.25 76.6373 212.691 19.6896 267.266C-38.9724 323.482 -106.377 384.237 -105.532 465.465C-104.696 546.275 -36.0756 605.254 23.7736 659.581C79.762 710.387 142.446 755.216 217.971 759.061Z" fill="#888888"/>
<path d="M217.971 598.917C253.986 600.749 291.625 589.988 315.706 563.159C338.89 537.327 336.592 500.15 337.755 465.465C338.98 428.9 346.175 388.879 322.478 361.001C297.642 331.784 256.223 321.721 217.971 324.546C182.213 327.185 153.729 350.568 127.844 375.375C101.179 400.927 70.5398 428.544 70.9245 465.465C71.3044 502.196 102.495 529.006 129.7 553.699C155.149 576.792 183.642 597.17 217.971 598.917Z" fill="#F1F1F1" fill-opacity="0.945098"/>
</g>
</svg>
